<svg xmlns="http://www.w3.org/2000/svg" width="1440" height="900" viewBox="0 0 1440 900" role="img" aria-labelledby="title desc">
  <title id="title">Max Flow Optimizer demo flow</title>
  <desc id="desc">Composite visual of the Periodos, Medicos and Planificador screens used in the MVP demo.</desc>
  <rect width="1440" height="900" fill="#f7fafc"/>
  <rect x="0" y="0" width="1440" height="118" fill="#0f172a"/>
  <text x="72" y="48" fill="#67e8f9" font-family="Inter, Arial, sans-serif" font-size="18" font-weight="700">MAX FLOW OPTIMIZER</text>
  <text x="72" y="86" fill="#ffffff" font-family="Inter, Arial, sans-serif" font-size="34" font-weight="700">Planificador de feriados</text>
  <rect x="1080" y="44" width="92" height="34" rx="6" fill="#334155"/>
  <text x="1102" y="66" fill="#e2e8f0" font-family="Inter, Arial, sans-serif" font-size="13">Fixture OK</text>
  <rect x="1188" y="44" width="92" height="34" rx="6" fill="#334155"/>
  <text x="1210" y="66" fill="#e2e8f0" font-family="Inter, Arial, sans-serif" font-size="13">Fixture KO</text>
  <rect x="1296" y="44" width="96" height="34" rx="6" fill="#155e75"/>
  <text x="1317" y="66" fill="#ecfeff" font-family="Inter, Arial, sans-serif" font-size="13">Import JSON</text>

  <g font-family="Inter, Arial, sans-serif">
    <rect x="72" y="154" width="1296" height="54" rx="8" fill="#e2e8f0"/>
    <rect x="84" y="164" width="152" height="34" rx="6" fill="#0f172a"/>
    <text x="124" y="186" fill="#ffffff" font-size="14" font-weight="700">Periodos</text>
    <text x="282" y="186" fill="#334155" font-size="14" font-weight="700">Medicos</text>
    <text x="424" y="186" fill="#334155" font-size="14" font-weight="700">Planificador</text>

    <rect x="72" y="244" width="398" height="528" rx="8" fill="#ffffff" stroke="#cbd5e1"/>
    <text x="104" y="290" fill="#0f172a" font-size="24" font-weight="700">1. Periodos</text>
    <text x="104" y="322" fill="#475569" font-size="15">Dias agrupados por periodo</text>
    <rect x="104" y="366" width="334" height="74" rx="6" fill="#f8fafc" stroke="#cbd5e1"/>
    <text x="128" y="397" fill="#0f172a" font-size="16" font-weight="700">p1</text>
    <text x="128" y="424" fill="#475569" font-size="14">d1 · d2</text>
    <rect x="104" y="462" width="334" height="74" rx="6" fill="#f8fafc" stroke="#cbd5e1"/>
    <text x="128" y="493" fill="#0f172a" font-size="16" font-weight="700">p2</text>
    <text x="128" y="520" fill="#475569" font-size="14">d3</text>
    <rect x="104" y="594" width="150" height="38" rx="6" fill="#0891b2"/>
    <text x="129" y="619" fill="#ffffff" font-size="14" font-weight="700">Agregar dia</text>

    <rect x="521" y="244" width="398" height="528" rx="8" fill="#ffffff" stroke="#cbd5e1"/>
    <text x="553" y="290" fill="#0f172a" font-size="24" font-weight="700">2. Medicos</text>
    <text x="553" y="322" fill="#475569" font-size="15">Disponibilidad por periodo</text>
    <rect x="553" y="366" width="334" height="112" rx="6" fill="#f8fafc" stroke="#cbd5e1"/>
    <text x="577" y="397" fill="#0f172a" font-size="16" font-weight="700">Ana</text>
    <rect x="577" y="420" width="24" height="24" rx="4" fill="#0891b2"/>
    <text x="584" y="438" fill="#ffffff" font-size="16">✓</text>
    <text x="612" y="438" fill="#475569" font-size="14">d1</text>
    <rect x="657" y="420" width="24" height="24" rx="4" fill="#e2e8f0"/>
    <text x="692" y="438" fill="#475569" font-size="14">d2</text>
    <rect x="737" y="420" width="24" height="24" rx="4" fill="#0891b2"/>
    <text x="744" y="438" fill="#ffffff" font-size="16">✓</text>
    <text x="772" y="438" fill="#475569" font-size="14">d3</text>
    <rect x="553" y="502" width="334" height="112" rx="6" fill="#f8fafc" stroke="#cbd5e1"/>
    <text x="577" y="533" fill="#0f172a" font-size="16" font-weight="700">Luis</text>
    <rect x="577" y="556" width="24" height="24" rx="4" fill="#e2e8f0"/>
    <text x="612" y="574" fill="#475569" font-size="14">d1</text>
    <rect x="657" y="556" width="24" height="24" rx="4" fill="#0891b2"/>
    <text x="664" y="574" fill="#ffffff" font-size="16">✓</text>
    <text x="692" y="574" fill="#475569" font-size="14">d2</text>

    <rect x="970" y="244" width="398" height="528" rx="8" fill="#ffffff" stroke="#cbd5e1"/>
    <text x="1002" y="290" fill="#0f172a" font-size="24" font-weight="700">3. Planificador</text>
    <text x="1002" y="322" fill="#475569" font-size="15">Resolver y exportar resultados</text>
    <rect x="1002" y="366" width="154" height="86" rx="6" fill="#ecfeff" stroke="#67e8f9"/>
    <text x="1024" y="400" fill="#155e75" font-size="14" font-weight="700">requiredFlow</text>
    <text x="1024" y="431" fill="#0f172a" font-size="28" font-weight="700">3</text>
    <rect x="1182" y="366" width="154" height="86" rx="6" fill="#f0fdf4" stroke="#86efac"/>
    <text x="1204" y="400" fill="#166534" font-size="14" font-weight="700">maxFlow</text>
    <text x="1204" y="431" fill="#0f172a" font-size="28" font-weight="700">3</text>
    <rect x="1002" y="488" width="334" height="46" rx="6" fill="#0891b2"/>
    <text x="1130" y="517" fill="#ffffff" font-size="15" font-weight="700">Resolver</text>
    <rect x="1002" y="570" width="334" height="48" fill="#f8fafc" stroke="#cbd5e1"/>
    <text x="1024" y="600" fill="#0f172a" font-size="14" font-weight="700">d1</text>
    <text x="1226" y="600" fill="#0f172a" font-size="14">Ana</text>
    <rect x="1002" y="618" width="334" height="48" fill="#ffffff" stroke="#cbd5e1"/>
    <text x="1024" y="648" fill="#0f172a" font-size="14" font-weight="700">d2</text>
    <text x="1226" y="648" fill="#0f172a" font-size="14">Luis</text>
    <rect x="1002" y="666" width="334" height="48" fill="#f8fafc" stroke="#cbd5e1"/>
    <text x="1024" y="696" fill="#0f172a" font-size="14" font-weight="700">d3</text>
    <text x="1226" y="696" fill="#0f172a" font-size="14">Ana</text>
  </g>
</svg>
